<?xml version="1.0" standalone="no"?>
<!DOCTYPE svg PUBLIC "-//W3C//DTD SVG 20010904//EN"
 "http://www.w3.org/TR/2001/REC-SVG-20010904/DTD/svg10.dtd">
<svg version="1.0" xmlns="http://www.w3.org/2000/svg"
 width="1695.000000pt" height="517.000000pt" viewBox="0 0 1695.000000 517.000000"
 preserveAspectRatio="xMidYMid meet">

<g transform="translate(0.000000,517.000000) scale(0.100000,-0.100000)"
fill="#000000" stroke="none">
<path d="M0 2585 l0 -2575 1445 0 1446 0 -3 2204 c-2 1212 -2 2204 -2 2203 1
-1 16 -74 33 -162 64 -323 895 -4230 902 -4238 5 -7 996 196 1004 205 4 4
-1045 4931 -1050 4936 -2 2 -197 -37 -433 -87 -236 -50 -434 -91 -441 -91 -7
0 -11 29 -11 90 l0 90 -1445 0 -1445 0 0 -2575z m580 869 c0 -1755 -3 -1656
56 -1683 15 -6 80 -11 159 -11 l135 0 0 -791 0 -791 -34 -34 -34 -34 -344 0
c-301 0 -346 2 -367 16 -54 38 -51 -109 -51 2502 0 1330 3 2422 7 2425 3 4
111 7 240 7 l233 0 0 -1606z m1110 -21 l5 -1622 23 -23 c16 -17 38 -24 80 -28
l57 -5 0 -793 0 -794 -33 -29 -32 -29 -345 0 -345 0 -32 29 -33 29 -3 796 -2
796 56 0 c48 0 59 4 85 29 l29 29 0 1615 c0 887 3 1617 7 1621 4 3 113 5 242
4 l236 -3 5 -1622z m1097 -803 c3 -2292 2 -2427 -15 -2460 -29 -59 -33 -60
-406 -60 l-338 0 -34 34 -34 34 0 791 0 791 140 0 140 0 32 29 33 29 3 1621 2
1621 238 -2 237 -3 2 -2425z m889 2375 c12 -8 26 -27 33 -42 6 -15 229 -1055
496 -2310 370 -1741 483 -2288 476 -2306 -20 -51 -48 -61 -373 -130 -172 -37
-325 -67 -339 -67 -28 0 -64 23 -79 50 -21 39 -981 4584 -975 4616 10 58 26
64 358 135 172 37 328 68 347 68 20 1 45 -6 56 -14z"/>
<path d="M11750 2935 l0 -915 145 0 145 0 0 66 0 67 44 -41 c216 -200 604
-145 777 109 83 123 115 244 106 413 -6 122 -28 203 -80 296 -42 75 -141 170
-216 208 -179 90 -409 78 -548 -28 l-53 -40 -2 388 -3 387 -157 3 -158 3 0
-916z m739 -56 c113 -57 168 -162 159 -308 -11 -181 -143 -301 -317 -289 -112
8 -192 64 -240 168 -21 46 -25 70 -25 146 -1 82 2 96 33 158 52 107 131 154
257 155 60 1 80 -4 133 -30z"/>
<path d="M15810 2935 l0 -915 155 0 155 0 2 318 3 317 230 -317 230 -318 177
0 c98 0 178 2 178 5 0 3 -104 147 -230 321 l-231 316 48 56 c195 231 340 401
361 425 l26 27 -190 0 -190 0 -205 -242 -204 -243 -3 583 -2 582 -155 0 -155
0 0 -915z"/>
<path d="M7456 3775 c-82 -29 -133 -112 -124 -205 12 -127 163 -207 283 -151
76 35 115 95 115 177 0 59 -19 103 -63 141 -58 51 -135 65 -211 38z"/>
<path d="M10840 3184 c-110 -23 -225 -87 -305 -168 -289 -292 -202 -784 170
-961 95 -44 162 -59 275 -59 217 1 400 95 517 267 76 111 98 190 97 342 0 103
-4 130 -26 187 -59 157 -157 267 -300 338 -137 67 -283 86 -428 54z m279 -309
c102 -56 156 -153 156 -280 -1 -101 -27 -166 -95 -229 -66 -62 -109 -79 -200
-79 -125 -1 -207 50 -262 161 -29 59 -33 76 -33 147 1 66 5 90 28 140 36 78
68 111 142 147 54 26 68 29 135 25 60 -3 87 -10 129 -32z"/>
<path d="M13565 3186 c-142 -34 -233 -85 -324 -182 -175 -186 -211 -467 -89
-697 71 -133 224 -251 378 -293 85 -22 244 -23 327 -1 229 60 400 237 448 464
18 86 19 142 1 235 -18 92 -45 155 -101 234 -74 103 -199 191 -325 229 -77 23
-240 28 -315 11z m262 -304 c178 -92 223 -349 88 -500 -59 -66 -127 -96 -220
-96 -120 -1 -218 62 -269 173 -31 68 -30 206 3 279 28 62 103 134 164 156 60
22 179 16 234 -12z"/>
<path d="M14895 3184 c-282 -60 -474 -299 -475 -589 0 -272 186 -512 451 -582
85 -22 243 -22 329 1 203 55 372 215 432 411 33 105 30 253 -6 360 -100 297
-412 466 -731 399z m271 -302 c57 -29 129 -112 149 -172 54 -161 -17 -337
-160 -401 -105 -48 -244 -23 -327 58 -81 79 -111 233 -68 347 30 78 96 149
164 176 67 27 182 23 242 -8z"/>
<path d="M6410 3166 c-76 -17 -125 -40 -187 -87 -58 -43 -61 -41 -44 34 l9 38
-146 -3 -147 -3 -147 -835 c-81 -459 -147 -843 -148 -852 0 -16 14 -18 155
-18 85 0 155 1 156 3 0 1 28 161 62 355 l63 353 24 -27 c39 -41 105 -83 168
-106 84 -31 269 -31 369 0 87 27 207 105 261 170 123 149 182 340 162 525 -36
316 -311 520 -610 453z m130 -297 c55 -25 105 -71 133 -124 31 -58 31 -209 0
-277 -75 -164 -264 -239 -416 -165 -106 52 -153 141 -145 276 8 127 71 226
180 281 77 38 176 42 248 9z"/>
<path d="M8173 3169 c-157 -26 -292 -116 -384 -257 -134 -205 -154 -446 -53
-651 46 -93 129 -178 216 -219 163 -78 373 -62 506 38 29 22 55 40 58 40 2 0
2 -22 -2 -50 l-7 -50 147 0 c80 0 146 1 146 3 0 6 190 1092 194 1110 4 16 -9
17 -154 17 l-157 0 -12 -60 -12 -61 -45 40 c-104 91 -268 129 -441 100z m259
-301 c220 -94 203 -441 -26 -558 -57 -29 -77 -34 -134 -34 -109 0 -199 51
-243 137 -63 122 -36 280 65 385 93 98 215 123 338 70z"/>
<path d="M9740 3169 c-60 -12 -116 -35 -165 -68 -66 -45 -64 -44 -54 -3 5 20
9 40 9 45 0 4 -65 7 -144 7 l-144 0 -6 -27 c-15 -72 -186 -1074 -186 -1088 0
-13 23 -15 155 -15 85 0 155 3 155 6 0 31 125 707 136 732 23 56 50 87 103
116 69 37 160 39 223 5 50 -28 88 -92 88 -151 0 -31 -96 -603 -115 -685 l-5
-23 160 0 c94 0 160 4 160 9 0 6 27 167 61 358 73 415 75 476 21 586 -78 158
-255 235 -452 196z"/>
<path d="M7275 3058 c-9 -51 -53 -304 -98 -563 l-83 -470 155 -3 c84 -1 155
-1 157 1 2 2 47 249 99 548 52 299 97 552 99 562 4 16 -9 17 -154 17 l-158 0
-17 -92z"/>
</g>
</svg>
